%TF.GenerationSoftware,KiCad,Pcbnew,8.0.0*%
%TF.CreationDate,2024-04-07T22:46:54-07:00*%
%TF.ProjectId,PDM_Receiver,50444d5f-5265-4636-9569-7665722e6b69,rev?*%
%TF.SameCoordinates,Original*%
%TF.FileFunction,Paste,Top*%
%TF.FilePolarity,Positive*%
%FSLAX46Y46*%
G04 Gerber Fmt 4.6, Leading zero omitted, Abs format (unit mm)*
G04 Created by KiCad (PCBNEW 8.0.0) date 2024-04-07 22:46:54*
%MOMM*%
%LPD*%
G01*
G04 APERTURE LIST*
G04 Aperture macros list*
%AMRoundRect*
0 Rectangle with rounded corners*
0 $1 Rounding radius*
0 $2 $3 $4 $5 $6 $7 $8 $9 X,Y pos of 4 corners*
0 Add a 4 corners polygon primitive as box body*
4,1,4,$2,$3,$4,$5,$6,$7,$8,$9,$2,$3,0*
0 Add four circle primitives for the rounded corners*
1,1,$1+$1,$2,$3*
1,1,$1+$1,$4,$5*
1,1,$1+$1,$6,$7*
1,1,$1+$1,$8,$9*
0 Add four rect primitives between the rounded corners*
20,1,$1+$1,$2,$3,$4,$5,0*
20,1,$1+$1,$4,$5,$6,$7,0*
20,1,$1+$1,$6,$7,$8,$9,0*
20,1,$1+$1,$8,$9,$2,$3,0*%
G04 Aperture macros list end*
%ADD10C,0.001000*%
%ADD11R,0.500000X0.700000*%
%ADD12RoundRect,0.250000X-0.250000X-0.475000X0.250000X-0.475000X0.250000X0.475000X-0.250000X0.475000X0*%
G04 APERTURE END LIST*
D10*
%TO.C,MK1*%
X111913250Y-65978000D02*
X111958250Y-66068000D01*
X112004453Y-66217809D01*
X112018250Y-66378000D01*
X112008250Y-66518000D01*
X111988250Y-66598000D01*
X111958250Y-66688000D01*
X111908250Y-66788000D01*
X111843250Y-66883000D01*
X111733250Y-66768000D01*
X111634422Y-66670666D01*
X111669787Y-66602609D01*
X111713250Y-66503000D01*
X111728250Y-66383000D01*
X111731853Y-66383000D01*
X111728250Y-66373000D01*
X111713250Y-66268000D01*
X111718250Y-66258000D01*
X111713250Y-66258000D01*
X111673250Y-66148000D01*
X111638250Y-66093000D01*
X111738250Y-65993000D01*
X111848559Y-65878234D01*
X111913250Y-65978000D01*
G36*
X111913250Y-65978000D02*
G01*
X111958250Y-66068000D01*
X112004453Y-66217809D01*
X112018250Y-66378000D01*
X112008250Y-66518000D01*
X111988250Y-66598000D01*
X111958250Y-66688000D01*
X111908250Y-66788000D01*
X111843250Y-66883000D01*
X111733250Y-66768000D01*
X111634422Y-66670666D01*
X111669787Y-66602609D01*
X111713250Y-66503000D01*
X111728250Y-66383000D01*
X111731853Y-66383000D01*
X111728250Y-66373000D01*
X111713250Y-66268000D01*
X111718250Y-66258000D01*
X111713250Y-66258000D01*
X111673250Y-66148000D01*
X111638250Y-66093000D01*
X111738250Y-65993000D01*
X111848559Y-65878234D01*
X111913250Y-65978000D01*
G37*
X111348250Y-65578000D02*
X111428250Y-65598000D01*
X111518250Y-65628000D01*
X111613250Y-65673000D01*
X111708250Y-65738000D01*
X111593250Y-65853000D01*
X111495916Y-65951828D01*
X111432859Y-65916463D01*
X111328250Y-65878000D01*
X111208250Y-65864397D01*
X111088250Y-65878000D01*
X110978250Y-65918000D01*
X110928250Y-65953000D01*
X110828250Y-65848000D01*
X110713484Y-65732691D01*
X110783250Y-65688000D01*
X110898250Y-65628000D01*
X111048059Y-65581797D01*
X111208250Y-65568000D01*
X111348250Y-65578000D01*
G36*
X111348250Y-65578000D02*
G01*
X111428250Y-65598000D01*
X111518250Y-65628000D01*
X111613250Y-65673000D01*
X111708250Y-65738000D01*
X111593250Y-65853000D01*
X111495916Y-65951828D01*
X111432859Y-65916463D01*
X111328250Y-65878000D01*
X111208250Y-65864397D01*
X111088250Y-65878000D01*
X110978250Y-65918000D01*
X110928250Y-65953000D01*
X110828250Y-65848000D01*
X110713484Y-65732691D01*
X110783250Y-65688000D01*
X110898250Y-65628000D01*
X111048059Y-65581797D01*
X111208250Y-65568000D01*
X111348250Y-65578000D01*
G37*
X110688250Y-65998000D02*
X110787078Y-66095334D01*
X110746713Y-66153391D01*
X110708250Y-66258000D01*
X110694647Y-66378000D01*
X110708250Y-66498000D01*
X110748250Y-66608000D01*
X110783250Y-66658000D01*
X110678250Y-66763000D01*
X110567941Y-66877766D01*
X110503250Y-66783000D01*
X110458250Y-66688000D01*
X110428250Y-66613000D01*
X110412047Y-66538191D01*
X110398250Y-66443000D01*
X110398250Y-66378000D01*
X110398250Y-66318000D01*
X110408250Y-66238000D01*
X110428250Y-66148000D01*
X110458250Y-66068000D01*
X110503250Y-65973000D01*
X110568250Y-65878000D01*
X110688250Y-65998000D01*
G36*
X110688250Y-65998000D02*
G01*
X110787078Y-66095334D01*
X110746713Y-66153391D01*
X110708250Y-66258000D01*
X110694647Y-66378000D01*
X110708250Y-66498000D01*
X110748250Y-66608000D01*
X110783250Y-66658000D01*
X110678250Y-66763000D01*
X110567941Y-66877766D01*
X110503250Y-66783000D01*
X110458250Y-66688000D01*
X110428250Y-66613000D01*
X110412047Y-66538191D01*
X110398250Y-66443000D01*
X110398250Y-66378000D01*
X110398250Y-66318000D01*
X110408250Y-66238000D01*
X110428250Y-66148000D01*
X110458250Y-66068000D01*
X110503250Y-65973000D01*
X110568250Y-65878000D01*
X110688250Y-65998000D01*
G37*
X110983641Y-66839537D02*
X111088250Y-66878000D01*
X111208250Y-66891603D01*
X111268250Y-66888000D01*
X111328250Y-66878000D01*
X111383250Y-66863000D01*
X111438250Y-66838000D01*
X111488250Y-66813000D01*
X111583250Y-66908000D01*
X111698016Y-67023309D01*
X111623250Y-67078000D01*
X111518250Y-67128000D01*
X111368441Y-67174203D01*
X111208250Y-67188000D01*
X111068250Y-67178000D01*
X110978250Y-67158000D01*
X110898250Y-67128000D01*
X110798250Y-67078000D01*
X110708250Y-67018000D01*
X110823250Y-66903000D01*
X110925584Y-66804172D01*
X110983641Y-66839537D01*
G36*
X110983641Y-66839537D02*
G01*
X111088250Y-66878000D01*
X111208250Y-66891603D01*
X111268250Y-66888000D01*
X111328250Y-66878000D01*
X111383250Y-66863000D01*
X111438250Y-66838000D01*
X111488250Y-66813000D01*
X111583250Y-66908000D01*
X111698016Y-67023309D01*
X111623250Y-67078000D01*
X111518250Y-67128000D01*
X111368441Y-67174203D01*
X111208250Y-67188000D01*
X111068250Y-67178000D01*
X110978250Y-67158000D01*
X110898250Y-67128000D01*
X110798250Y-67078000D01*
X110708250Y-67018000D01*
X110823250Y-66903000D01*
X110925584Y-66804172D01*
X110983641Y-66839537D01*
G37*
%TD*%
D11*
%TO.C,MK1*%
X113282250Y-65540500D03*
X112460250Y-65540500D03*
X113282250Y-67215500D03*
X112460250Y-67215500D03*
%TD*%
D12*
%TO.C,C5*%
X109050000Y-73000000D03*
X110950000Y-73000000D03*
%TD*%
%TO.C,C10*%
X109050000Y-70000000D03*
X110950000Y-70000000D03*
%TD*%
M02*
