%TF.GenerationSoftware,KiCad,Pcbnew,8.0.0*%
%TF.CreationDate,2024-04-07T22:46:54-07:00*%
%TF.ProjectId,PDM_Receiver,50444d5f-5265-4636-9569-7665722e6b69,rev?*%
%TF.SameCoordinates,Original*%
%TF.FileFunction,Legend,Top*%
%TF.FilePolarity,Positive*%
%FSLAX46Y46*%
G04 Gerber Fmt 4.6, Leading zero omitted, Abs format (unit mm)*
G04 Created by KiCad (PCBNEW 8.0.0) date 2024-04-07 22:46:54*
%MOMM*%
%LPD*%
G01*
G04 APERTURE LIST*
%ADD10C,0.154000*%
%ADD11C,0.152400*%
%ADD12C,0.127000*%
%ADD13C,0.100000*%
G04 APERTURE END LIST*
D10*
X115612012Y-67566436D02*
X114596012Y-67566436D01*
X114596012Y-67566436D02*
X115321727Y-67227769D01*
X115321727Y-67227769D02*
X114596012Y-66889102D01*
X114596012Y-66889102D02*
X115612012Y-66889102D01*
X115612012Y-66405293D02*
X114596012Y-66405293D01*
X115612012Y-65824721D02*
X115031441Y-66260150D01*
X114596012Y-65824721D02*
X115176584Y-66405293D01*
X115612012Y-64857102D02*
X115612012Y-65437674D01*
X115612012Y-65147388D02*
X114596012Y-65147388D01*
X114596012Y-65147388D02*
X114741155Y-65244150D01*
X114741155Y-65244150D02*
X114837917Y-65340912D01*
X114837917Y-65340912D02*
X114886298Y-65437674D01*
D11*
X112830667Y-73365334D02*
X112782286Y-73413715D01*
X112782286Y-73413715D02*
X112637143Y-73462095D01*
X112637143Y-73462095D02*
X112540381Y-73462095D01*
X112540381Y-73462095D02*
X112395238Y-73413715D01*
X112395238Y-73413715D02*
X112298476Y-73316953D01*
X112298476Y-73316953D02*
X112250095Y-73220191D01*
X112250095Y-73220191D02*
X112201714Y-73026667D01*
X112201714Y-73026667D02*
X112201714Y-72881524D01*
X112201714Y-72881524D02*
X112250095Y-72688000D01*
X112250095Y-72688000D02*
X112298476Y-72591238D01*
X112298476Y-72591238D02*
X112395238Y-72494476D01*
X112395238Y-72494476D02*
X112540381Y-72446095D01*
X112540381Y-72446095D02*
X112637143Y-72446095D01*
X112637143Y-72446095D02*
X112782286Y-72494476D01*
X112782286Y-72494476D02*
X112830667Y-72542857D01*
X113749905Y-72446095D02*
X113266095Y-72446095D01*
X113266095Y-72446095D02*
X113217714Y-72929905D01*
X113217714Y-72929905D02*
X113266095Y-72881524D01*
X113266095Y-72881524D02*
X113362857Y-72833143D01*
X113362857Y-72833143D02*
X113604762Y-72833143D01*
X113604762Y-72833143D02*
X113701524Y-72881524D01*
X113701524Y-72881524D02*
X113749905Y-72929905D01*
X113749905Y-72929905D02*
X113798286Y-73026667D01*
X113798286Y-73026667D02*
X113798286Y-73268572D01*
X113798286Y-73268572D02*
X113749905Y-73365334D01*
X113749905Y-73365334D02*
X113701524Y-73413715D01*
X113701524Y-73413715D02*
X113604762Y-73462095D01*
X113604762Y-73462095D02*
X113362857Y-73462095D01*
X113362857Y-73462095D02*
X113266095Y-73413715D01*
X113266095Y-73413715D02*
X113217714Y-73365334D01*
X113346857Y-71365334D02*
X113298476Y-71413715D01*
X113298476Y-71413715D02*
X113153333Y-71462095D01*
X113153333Y-71462095D02*
X113056571Y-71462095D01*
X113056571Y-71462095D02*
X112911428Y-71413715D01*
X112911428Y-71413715D02*
X112814666Y-71316953D01*
X112814666Y-71316953D02*
X112766285Y-71220191D01*
X112766285Y-71220191D02*
X112717904Y-71026667D01*
X112717904Y-71026667D02*
X112717904Y-70881524D01*
X112717904Y-70881524D02*
X112766285Y-70688000D01*
X112766285Y-70688000D02*
X112814666Y-70591238D01*
X112814666Y-70591238D02*
X112911428Y-70494476D01*
X112911428Y-70494476D02*
X113056571Y-70446095D01*
X113056571Y-70446095D02*
X113153333Y-70446095D01*
X113153333Y-70446095D02*
X113298476Y-70494476D01*
X113298476Y-70494476D02*
X113346857Y-70542857D01*
X114314476Y-71462095D02*
X113733904Y-71462095D01*
X114024190Y-71462095D02*
X114024190Y-70446095D01*
X114024190Y-70446095D02*
X113927428Y-70591238D01*
X113927428Y-70591238D02*
X113830666Y-70688000D01*
X113830666Y-70688000D02*
X113733904Y-70736381D01*
X114943428Y-70446095D02*
X115040190Y-70446095D01*
X115040190Y-70446095D02*
X115136952Y-70494476D01*
X115136952Y-70494476D02*
X115185333Y-70542857D01*
X115185333Y-70542857D02*
X115233714Y-70639619D01*
X115233714Y-70639619D02*
X115282095Y-70833143D01*
X115282095Y-70833143D02*
X115282095Y-71075048D01*
X115282095Y-71075048D02*
X115233714Y-71268572D01*
X115233714Y-71268572D02*
X115185333Y-71365334D01*
X115185333Y-71365334D02*
X115136952Y-71413715D01*
X115136952Y-71413715D02*
X115040190Y-71462095D01*
X115040190Y-71462095D02*
X114943428Y-71462095D01*
X114943428Y-71462095D02*
X114846666Y-71413715D01*
X114846666Y-71413715D02*
X114798285Y-71365334D01*
X114798285Y-71365334D02*
X114749904Y-71268572D01*
X114749904Y-71268572D02*
X114701523Y-71075048D01*
X114701523Y-71075048D02*
X114701523Y-70833143D01*
X114701523Y-70833143D02*
X114749904Y-70639619D01*
X114749904Y-70639619D02*
X114798285Y-70542857D01*
X114798285Y-70542857D02*
X114846666Y-70494476D01*
X114846666Y-70494476D02*
X114943428Y-70446095D01*
X115446095Y-74338666D02*
X116171810Y-74338666D01*
X116171810Y-74338666D02*
X116316953Y-74387047D01*
X116316953Y-74387047D02*
X116413715Y-74483809D01*
X116413715Y-74483809D02*
X116462095Y-74628952D01*
X116462095Y-74628952D02*
X116462095Y-74725714D01*
X115542857Y-73903238D02*
X115494476Y-73854857D01*
X115494476Y-73854857D02*
X115446095Y-73758095D01*
X115446095Y-73758095D02*
X115446095Y-73516190D01*
X115446095Y-73516190D02*
X115494476Y-73419428D01*
X115494476Y-73419428D02*
X115542857Y-73371047D01*
X115542857Y-73371047D02*
X115639619Y-73322666D01*
X115639619Y-73322666D02*
X115736381Y-73322666D01*
X115736381Y-73322666D02*
X115881524Y-73371047D01*
X115881524Y-73371047D02*
X116462095Y-73951619D01*
X116462095Y-73951619D02*
X116462095Y-73322666D01*
X111596095Y-85338666D02*
X112321810Y-85338666D01*
X112321810Y-85338666D02*
X112466953Y-85387047D01*
X112466953Y-85387047D02*
X112563715Y-85483809D01*
X112563715Y-85483809D02*
X112612095Y-85628952D01*
X112612095Y-85628952D02*
X112612095Y-85725714D01*
X111596095Y-84951619D02*
X111596095Y-84322666D01*
X111596095Y-84322666D02*
X111983143Y-84661333D01*
X111983143Y-84661333D02*
X111983143Y-84516190D01*
X111983143Y-84516190D02*
X112031524Y-84419428D01*
X112031524Y-84419428D02*
X112079905Y-84371047D01*
X112079905Y-84371047D02*
X112176667Y-84322666D01*
X112176667Y-84322666D02*
X112418572Y-84322666D01*
X112418572Y-84322666D02*
X112515334Y-84371047D01*
X112515334Y-84371047D02*
X112563715Y-84419428D01*
X112563715Y-84419428D02*
X112612095Y-84516190D01*
X112612095Y-84516190D02*
X112612095Y-84806476D01*
X112612095Y-84806476D02*
X112563715Y-84903238D01*
X112563715Y-84903238D02*
X112515334Y-84951619D01*
D12*
%TO.C,MK1*%
X111808250Y-67703000D02*
X110082250Y-67703000D01*
X110082250Y-67703000D02*
X110082250Y-65053000D01*
X110082250Y-65053000D02*
X111808250Y-65053000D01*
D13*
X113417250Y-64727000D02*
G75*
G02*
X113317250Y-64727000I-50000J0D01*
G01*
X113317250Y-64727000D02*
G75*
G02*
X113417250Y-64727000I50000J0D01*
G01*
D11*
%TO.C,C5*%
X109738748Y-73735000D02*
X110261252Y-73735000D01*
X109738748Y-72265000D02*
X110261252Y-72265000D01*
%TO.C,C10*%
X109738748Y-70735000D02*
X110261252Y-70735000D01*
X109738748Y-69265000D02*
X110261252Y-69265000D01*
%TO.C,J2*%
X110130000Y-78330000D02*
X110130000Y-77000000D01*
X111460000Y-78330000D02*
X110130000Y-78330000D01*
X112730000Y-75670000D02*
X115330000Y-75670000D01*
X112730000Y-78330000D02*
X112730000Y-75670000D01*
X112730000Y-78330000D02*
X115330000Y-78330000D01*
X115330000Y-78330000D02*
X115330000Y-75670000D01*
%TO.C,J3*%
X108295000Y-83330000D02*
X108295000Y-82000000D01*
X109625000Y-83330000D02*
X108295000Y-83330000D01*
X110895000Y-80670000D02*
X116035000Y-80670000D01*
X110895000Y-83330000D02*
X110895000Y-80670000D01*
X110895000Y-83330000D02*
X116035000Y-83330000D01*
X116035000Y-83330000D02*
X116035000Y-80670000D01*
%TD*%
M02*
