%TF.GenerationSoftware,KiCad,Pcbnew,8.0.0*%
%TF.CreationDate,2024-04-07T22:46:54-07:00*%
%TF.ProjectId,PDM_Receiver,50444d5f-5265-4636-9569-7665722e6b69,rev?*%
%TF.SameCoordinates,Original*%
%TF.FileFunction,Soldermask,Bot*%
%TF.FilePolarity,Negative*%
%FSLAX46Y46*%
G04 Gerber Fmt 4.6, Leading zero omitted, Abs format (unit mm)*
G04 Created by KiCad (PCBNEW 8.0.0) date 2024-04-07 22:46:54*
%MOMM*%
%LPD*%
G01*
G04 APERTURE LIST*
G04 APERTURE END LIST*
G36*
X110489580Y-81114800D02*
G01*
X110501941Y-81123059D01*
X110510200Y-81135420D01*
X110513100Y-81150000D01*
X110513100Y-82850000D01*
X110510200Y-82864580D01*
X110501941Y-82876941D01*
X110489580Y-82885200D01*
X110475000Y-82888100D01*
X108775000Y-82888100D01*
X108760420Y-82885200D01*
X108748059Y-82876941D01*
X108739800Y-82864580D01*
X108736900Y-82850000D01*
X108736900Y-81150000D01*
X108739800Y-81135420D01*
X108748059Y-81123059D01*
X108760420Y-81114800D01*
X108775000Y-81111900D01*
X110475000Y-81111900D01*
X110489580Y-81114800D01*
G37*
G36*
X112439438Y-81155367D02*
G01*
X112609050Y-81230883D01*
X112759255Y-81340013D01*
X112883488Y-81477988D01*
X112976320Y-81638777D01*
X113033693Y-81815354D01*
X113053100Y-82000000D01*
X113033693Y-82184646D01*
X112976320Y-82361223D01*
X112883488Y-82522012D01*
X112759255Y-82659987D01*
X112609050Y-82769117D01*
X112439438Y-82844633D01*
X112257832Y-82883235D01*
X112072168Y-82883235D01*
X111890562Y-82844633D01*
X111720950Y-82769117D01*
X111570745Y-82659987D01*
X111446512Y-82522012D01*
X111353680Y-82361223D01*
X111296307Y-82184646D01*
X111276900Y-82000000D01*
X111296307Y-81815354D01*
X111353680Y-81638777D01*
X111446512Y-81477988D01*
X111570745Y-81340013D01*
X111720950Y-81230883D01*
X111890562Y-81155367D01*
X112072168Y-81116765D01*
X112257832Y-81116765D01*
X112439438Y-81155367D01*
G37*
G36*
X114979438Y-81155367D02*
G01*
X115149050Y-81230883D01*
X115299255Y-81340013D01*
X115423488Y-81477988D01*
X115516320Y-81638777D01*
X115573693Y-81815354D01*
X115593100Y-82000000D01*
X115573693Y-82184646D01*
X115516320Y-82361223D01*
X115423488Y-82522012D01*
X115299255Y-82659987D01*
X115149050Y-82769117D01*
X114979438Y-82844633D01*
X114797832Y-82883235D01*
X114612168Y-82883235D01*
X114430562Y-82844633D01*
X114260950Y-82769117D01*
X114110745Y-82659987D01*
X113986512Y-82522012D01*
X113893680Y-82361223D01*
X113836307Y-82184646D01*
X113816900Y-82000000D01*
X113836307Y-81815354D01*
X113893680Y-81638777D01*
X113986512Y-81477988D01*
X114110745Y-81340013D01*
X114260950Y-81230883D01*
X114430562Y-81155367D01*
X114612168Y-81116765D01*
X114797832Y-81116765D01*
X114979438Y-81155367D01*
G37*
G36*
X112324580Y-76114800D02*
G01*
X112336941Y-76123059D01*
X112345200Y-76135420D01*
X112348100Y-76150000D01*
X112348100Y-77850000D01*
X112345200Y-77864580D01*
X112336941Y-77876941D01*
X112324580Y-77885200D01*
X112310000Y-77888100D01*
X110610000Y-77888100D01*
X110595420Y-77885200D01*
X110583059Y-77876941D01*
X110574800Y-77864580D01*
X110571900Y-77850000D01*
X110571900Y-76150000D01*
X110574800Y-76135420D01*
X110583059Y-76123059D01*
X110595420Y-76114800D01*
X110610000Y-76111900D01*
X112310000Y-76111900D01*
X112324580Y-76114800D01*
G37*
G36*
X114274438Y-76155367D02*
G01*
X114444050Y-76230883D01*
X114594255Y-76340013D01*
X114718488Y-76477988D01*
X114811320Y-76638777D01*
X114868693Y-76815354D01*
X114888100Y-77000000D01*
X114868693Y-77184646D01*
X114811320Y-77361223D01*
X114718488Y-77522012D01*
X114594255Y-77659987D01*
X114444050Y-77769117D01*
X114274438Y-77844633D01*
X114092832Y-77883235D01*
X113907168Y-77883235D01*
X113725562Y-77844633D01*
X113555950Y-77769117D01*
X113405745Y-77659987D01*
X113281512Y-77522012D01*
X113188680Y-77361223D01*
X113131307Y-77184646D01*
X113111900Y-77000000D01*
X113131307Y-76815354D01*
X113188680Y-76638777D01*
X113281512Y-76477988D01*
X113405745Y-76340013D01*
X113555950Y-76230883D01*
X113725562Y-76155367D01*
X113907168Y-76116765D01*
X114092832Y-76116765D01*
X114274438Y-76155367D01*
G37*
G36*
X111352300Y-66128498D02*
G01*
X111428947Y-66192813D01*
X111478975Y-66279464D01*
X111496350Y-66378000D01*
X111478975Y-66476536D01*
X111428947Y-66563187D01*
X111352300Y-66627502D01*
X111258278Y-66661723D01*
X111158222Y-66661723D01*
X111064200Y-66627502D01*
X110987553Y-66563187D01*
X110937525Y-66476536D01*
X110920150Y-66378000D01*
X110937525Y-66279464D01*
X110987553Y-66192813D01*
X111064200Y-66128498D01*
X111158222Y-66094277D01*
X111258278Y-66094277D01*
X111352300Y-66128498D01*
G37*
M02*
