%TF.GenerationSoftware,KiCad,Pcbnew,8.0.0*%
%TF.CreationDate,2024-06-16T22:46:12-07:00*%
%TF.ProjectId,PDM_Receiver,50444d5f-5265-4636-9569-7665722e6b69,rev?*%
%TF.SameCoordinates,Original*%
%TF.FileFunction,Copper,L3,Inr*%
%TF.FilePolarity,Positive*%
%FSLAX46Y46*%
G04 Gerber Fmt 4.6, Leading zero omitted, Abs format (unit mm)*
G04 Created by KiCad (PCBNEW 8.0.0) date 2024-06-16 22:46:12*
%MOMM*%
%LPD*%
G01*
G04 APERTURE LIST*
%TA.AperFunction,ComponentPad*%
%ADD10R,1.700000X1.700000*%
%TD*%
%TA.AperFunction,ComponentPad*%
%ADD11O,1.700000X1.700000*%
%TD*%
%TA.AperFunction,ViaPad*%
%ADD12C,0.800000*%
%TD*%
G04 APERTURE END LIST*
D10*
%TO.N,Data*%
%TO.C,J2*%
X111460000Y-77000000D03*
D11*
%TO.N,Net-(J2-Pin_2)*%
X114000000Y-77000000D03*
%TD*%
D10*
%TO.N,3.3V Power*%
%TO.C,J3*%
X109625000Y-82000000D03*
D11*
%TO.N,Net-(J3-Pin_2)*%
X112165000Y-82000000D03*
%TO.N,GND*%
X114705000Y-82000000D03*
%TD*%
D12*
%TO.N,Net-(J2-Pin_2)*%
X112500000Y-68500000D03*
X114000000Y-74000000D03*
%TO.N,GND*%
X109050000Y-68000000D03*
X109000000Y-75000000D03*
%TD*%
%TA.AperFunction,Conductor*%
%TO.N,3.3V Power*%
G36*
X116252539Y-64120185D02*
G01*
X116298294Y-64172989D01*
X116309500Y-64224500D01*
X116309500Y-87375500D01*
X116289815Y-87442539D01*
X116237011Y-87488294D01*
X116185500Y-87499500D01*
X108274500Y-87499500D01*
X108207461Y-87479815D01*
X108161706Y-87427011D01*
X108150500Y-87375500D01*
X108150500Y-81847600D01*
X108521000Y-81847600D01*
X109148198Y-81847600D01*
X109125000Y-81934174D01*
X109125000Y-82065826D01*
X109148198Y-82152400D01*
X108521001Y-82152400D01*
X108521001Y-82875014D01*
X108535737Y-82949106D01*
X108535738Y-82949109D01*
X108591876Y-83033123D01*
X108675895Y-83089263D01*
X108675896Y-83089264D01*
X108749980Y-83103999D01*
X109472599Y-83103999D01*
X109472600Y-83103998D01*
X109472600Y-82476802D01*
X109559174Y-82500000D01*
X109690826Y-82500000D01*
X109777400Y-82476802D01*
X109777400Y-83103999D01*
X110500015Y-83103999D01*
X110574106Y-83089262D01*
X110574109Y-83089261D01*
X110658123Y-83033123D01*
X110714263Y-82949104D01*
X110714264Y-82949103D01*
X110728999Y-82875021D01*
X110728999Y-82675372D01*
X110748683Y-82608332D01*
X110801487Y-82562577D01*
X110870645Y-82552633D01*
X110934201Y-82581658D01*
X110965380Y-82622964D01*
X110990965Y-82677830D01*
X110990966Y-82677832D01*
X110990967Y-82677833D01*
X110990967Y-82677834D01*
X111099281Y-82832521D01*
X111126505Y-82871401D01*
X111293599Y-83038495D01*
X111366100Y-83089261D01*
X111487165Y-83174032D01*
X111487167Y-83174033D01*
X111487170Y-83174035D01*
X111701337Y-83273903D01*
X111929592Y-83335063D01*
X112117918Y-83351539D01*
X112164999Y-83355659D01*
X112165000Y-83355659D01*
X112165001Y-83355659D01*
X112204234Y-83352226D01*
X112400408Y-83335063D01*
X112628663Y-83273903D01*
X112842830Y-83174035D01*
X113036401Y-83038495D01*
X113203495Y-82871401D01*
X113333425Y-82685842D01*
X113388002Y-82642217D01*
X113457500Y-82635023D01*
X113519855Y-82666546D01*
X113536575Y-82685842D01*
X113666500Y-82871395D01*
X113666505Y-82871401D01*
X113833599Y-83038495D01*
X113906100Y-83089261D01*
X114027165Y-83174032D01*
X114027167Y-83174033D01*
X114027170Y-83174035D01*
X114241337Y-83273903D01*
X114469592Y-83335063D01*
X114657918Y-83351539D01*
X114704999Y-83355659D01*
X114705000Y-83355659D01*
X114705001Y-83355659D01*
X114744234Y-83352226D01*
X114940408Y-83335063D01*
X115168663Y-83273903D01*
X115382830Y-83174035D01*
X115576401Y-83038495D01*
X115743495Y-82871401D01*
X115879035Y-82677830D01*
X115978903Y-82463663D01*
X116040063Y-82235408D01*
X116060659Y-82000000D01*
X116040063Y-81764592D01*
X115978903Y-81536337D01*
X115879035Y-81322171D01*
X115873425Y-81314158D01*
X115743494Y-81128597D01*
X115576402Y-80961506D01*
X115576395Y-80961501D01*
X115382834Y-80825967D01*
X115382830Y-80825965D01*
X115382828Y-80825964D01*
X115168663Y-80726097D01*
X115168659Y-80726096D01*
X115168655Y-80726094D01*
X114940413Y-80664938D01*
X114940403Y-80664936D01*
X114705001Y-80644341D01*
X114704999Y-80644341D01*
X114469596Y-80664936D01*
X114469586Y-80664938D01*
X114241344Y-80726094D01*
X114241335Y-80726098D01*
X114027171Y-80825964D01*
X114027169Y-80825965D01*
X113833597Y-80961505D01*
X113666505Y-81128597D01*
X113536575Y-81314158D01*
X113481998Y-81357783D01*
X113412500Y-81364977D01*
X113350145Y-81333454D01*
X113333425Y-81314158D01*
X113203494Y-81128597D01*
X113036402Y-80961506D01*
X113036395Y-80961501D01*
X112842834Y-80825967D01*
X112842830Y-80825965D01*
X112842828Y-80825964D01*
X112628663Y-80726097D01*
X112628659Y-80726096D01*
X112628655Y-80726094D01*
X112400413Y-80664938D01*
X112400403Y-80664936D01*
X112165001Y-80644341D01*
X112164999Y-80644341D01*
X111929596Y-80664936D01*
X111929586Y-80664938D01*
X111701344Y-80726094D01*
X111701335Y-80726098D01*
X111487171Y-80825964D01*
X111487169Y-80825965D01*
X111293597Y-80961505D01*
X111126505Y-81128597D01*
X110990965Y-81322169D01*
X110990964Y-81322171D01*
X110965381Y-81377035D01*
X110919208Y-81429474D01*
X110852015Y-81448626D01*
X110785134Y-81428410D01*
X110739799Y-81375245D01*
X110728999Y-81324630D01*
X110728999Y-81124985D01*
X110714262Y-81050893D01*
X110714261Y-81050890D01*
X110658123Y-80966876D01*
X110574104Y-80910736D01*
X110574103Y-80910735D01*
X110500021Y-80896000D01*
X109777400Y-80896000D01*
X109777400Y-81523197D01*
X109690826Y-81500000D01*
X109559174Y-81500000D01*
X109472600Y-81523197D01*
X109472600Y-80896000D01*
X108749985Y-80896000D01*
X108675893Y-80910737D01*
X108675890Y-80910738D01*
X108591876Y-80966876D01*
X108535736Y-81050895D01*
X108535735Y-81050896D01*
X108521000Y-81124978D01*
X108521000Y-81847600D01*
X108150500Y-81847600D01*
X108150500Y-77897870D01*
X110109500Y-77897870D01*
X110109501Y-77897876D01*
X110115908Y-77957483D01*
X110166202Y-78092328D01*
X110166206Y-78092335D01*
X110252452Y-78207544D01*
X110252455Y-78207547D01*
X110367664Y-78293793D01*
X110367671Y-78293797D01*
X110502517Y-78344091D01*
X110502516Y-78344091D01*
X110509444Y-78344835D01*
X110562127Y-78350500D01*
X112357872Y-78350499D01*
X112417483Y-78344091D01*
X112552331Y-78293796D01*
X112667546Y-78207546D01*
X112753796Y-78092331D01*
X112802810Y-77960916D01*
X112844681Y-77904984D01*
X112910145Y-77880566D01*
X112978418Y-77895417D01*
X113006673Y-77916569D01*
X113128599Y-78038495D01*
X113225384Y-78106265D01*
X113322165Y-78174032D01*
X113322167Y-78174033D01*
X113322170Y-78174035D01*
X113536337Y-78273903D01*
X113764592Y-78335063D01*
X113941034Y-78350500D01*
X113999999Y-78355659D01*
X114000000Y-78355659D01*
X114000001Y-78355659D01*
X114058966Y-78350500D01*
X114235408Y-78335063D01*
X114463663Y-78273903D01*
X114677830Y-78174035D01*
X114871401Y-78038495D01*
X115038495Y-77871401D01*
X115174035Y-77677830D01*
X115273903Y-77463663D01*
X115335063Y-77235408D01*
X115355659Y-77000000D01*
X115335063Y-76764592D01*
X115273903Y-76536337D01*
X115174035Y-76322171D01*
X115038495Y-76128599D01*
X115038494Y-76128597D01*
X114871402Y-75961506D01*
X114871395Y-75961501D01*
X114677834Y-75825967D01*
X114677830Y-75825965D01*
X114677828Y-75825964D01*
X114463663Y-75726097D01*
X114463659Y-75726096D01*
X114463655Y-75726094D01*
X114235413Y-75664938D01*
X114235403Y-75664936D01*
X114000001Y-75644341D01*
X113999999Y-75644341D01*
X113764596Y-75664936D01*
X113764586Y-75664938D01*
X113536344Y-75726094D01*
X113536335Y-75726098D01*
X113322171Y-75825964D01*
X113322169Y-75825965D01*
X113128600Y-75961503D01*
X113006673Y-76083430D01*
X112945350Y-76116914D01*
X112875658Y-76111930D01*
X112819725Y-76070058D01*
X112802810Y-76039081D01*
X112753797Y-75907671D01*
X112753793Y-75907664D01*
X112667547Y-75792455D01*
X112667544Y-75792452D01*
X112552335Y-75706206D01*
X112552328Y-75706202D01*
X112417482Y-75655908D01*
X112417483Y-75655908D01*
X112357883Y-75649501D01*
X112357881Y-75649500D01*
X112357873Y-75649500D01*
X112357864Y-75649500D01*
X110562129Y-75649500D01*
X110562123Y-75649501D01*
X110502516Y-75655908D01*
X110367671Y-75706202D01*
X110367664Y-75706206D01*
X110252455Y-75792452D01*
X110252452Y-75792455D01*
X110166206Y-75907664D01*
X110166202Y-75907671D01*
X110115908Y-76042517D01*
X110109501Y-76102116D01*
X110109500Y-76102135D01*
X110109500Y-77897870D01*
X108150500Y-77897870D01*
X108150500Y-75725341D01*
X108170185Y-75658302D01*
X108222989Y-75612547D01*
X108292147Y-75602603D01*
X108355703Y-75631628D01*
X108366645Y-75642364D01*
X108378840Y-75655908D01*
X108394129Y-75672888D01*
X108547265Y-75784148D01*
X108547270Y-75784151D01*
X108720192Y-75861142D01*
X108720197Y-75861144D01*
X108905354Y-75900500D01*
X108905355Y-75900500D01*
X109094644Y-75900500D01*
X109094646Y-75900500D01*
X109279803Y-75861144D01*
X109452730Y-75784151D01*
X109605871Y-75672888D01*
X109732533Y-75532216D01*
X109827179Y-75368284D01*
X109885674Y-75188256D01*
X109905460Y-75000000D01*
X109885674Y-74811744D01*
X109827179Y-74631716D01*
X109732533Y-74467784D01*
X109605871Y-74327112D01*
X109605870Y-74327111D01*
X109452734Y-74215851D01*
X109452729Y-74215848D01*
X109279807Y-74138857D01*
X109279802Y-74138855D01*
X109134001Y-74107865D01*
X109094646Y-74099500D01*
X108905354Y-74099500D01*
X108872897Y-74106398D01*
X108720197Y-74138855D01*
X108720192Y-74138857D01*
X108547270Y-74215848D01*
X108547265Y-74215851D01*
X108394129Y-74327111D01*
X108394128Y-74327112D01*
X108366649Y-74357631D01*
X108307162Y-74394279D01*
X108237305Y-74392948D01*
X108179257Y-74354061D01*
X108151448Y-74289964D01*
X108150500Y-74274658D01*
X108150500Y-74000000D01*
X113094540Y-74000000D01*
X113114326Y-74188256D01*
X113114327Y-74188259D01*
X113172818Y-74368277D01*
X113172821Y-74368284D01*
X113267467Y-74532216D01*
X113357063Y-74631722D01*
X113394129Y-74672888D01*
X113547265Y-74784148D01*
X113547270Y-74784151D01*
X113720192Y-74861142D01*
X113720197Y-74861144D01*
X113905354Y-74900500D01*
X113905355Y-74900500D01*
X114094644Y-74900500D01*
X114094646Y-74900500D01*
X114279803Y-74861144D01*
X114452730Y-74784151D01*
X114605871Y-74672888D01*
X114732533Y-74532216D01*
X114827179Y-74368284D01*
X114885674Y-74188256D01*
X114905460Y-74000000D01*
X114885674Y-73811744D01*
X114827179Y-73631716D01*
X114732533Y-73467784D01*
X114605871Y-73327112D01*
X114605870Y-73327111D01*
X114452734Y-73215851D01*
X114452729Y-73215848D01*
X114279807Y-73138857D01*
X114279802Y-73138855D01*
X114134001Y-73107865D01*
X114094646Y-73099500D01*
X113905354Y-73099500D01*
X113872897Y-73106398D01*
X113720197Y-73138855D01*
X113720192Y-73138857D01*
X113547270Y-73215848D01*
X113547265Y-73215851D01*
X113394129Y-73327111D01*
X113267466Y-73467785D01*
X113172821Y-73631715D01*
X113172818Y-73631722D01*
X113114327Y-73811740D01*
X113114326Y-73811744D01*
X113094540Y-74000000D01*
X108150500Y-74000000D01*
X108150500Y-68669811D01*
X108170185Y-68602772D01*
X108222989Y-68557017D01*
X108292147Y-68547073D01*
X108355703Y-68576098D01*
X108366650Y-68586839D01*
X108444129Y-68672888D01*
X108597265Y-68784148D01*
X108597270Y-68784151D01*
X108770192Y-68861142D01*
X108770197Y-68861144D01*
X108955354Y-68900500D01*
X108955355Y-68900500D01*
X109144644Y-68900500D01*
X109144646Y-68900500D01*
X109329803Y-68861144D01*
X109502730Y-68784151D01*
X109655871Y-68672888D01*
X109782533Y-68532216D01*
X109877179Y-68368284D01*
X109935674Y-68188256D01*
X109943789Y-68111036D01*
X109970373Y-68046424D01*
X110027671Y-68006439D01*
X110067110Y-68000000D01*
X111544946Y-68000000D01*
X111611985Y-68019685D01*
X111657740Y-68072489D01*
X111667684Y-68141647D01*
X111662877Y-68162318D01*
X111614327Y-68311740D01*
X111614326Y-68311744D01*
X111594540Y-68500000D01*
X111614326Y-68688256D01*
X111614327Y-68688259D01*
X111672818Y-68868277D01*
X111672821Y-68868284D01*
X111767467Y-69032216D01*
X111894129Y-69172888D01*
X112047265Y-69284148D01*
X112047270Y-69284151D01*
X112220192Y-69361142D01*
X112220197Y-69361144D01*
X112405354Y-69400500D01*
X112405355Y-69400500D01*
X112594644Y-69400500D01*
X112594646Y-69400500D01*
X112779803Y-69361144D01*
X112952730Y-69284151D01*
X113105871Y-69172888D01*
X113232533Y-69032216D01*
X113327179Y-68868284D01*
X113385674Y-68688256D01*
X113405460Y-68500000D01*
X113385674Y-68311744D01*
X113362177Y-68239428D01*
X113337123Y-68162318D01*
X113335128Y-68092477D01*
X113371209Y-68032644D01*
X113433910Y-68001816D01*
X113455054Y-68000000D01*
X115000000Y-68000000D01*
X115000000Y-64224500D01*
X115019685Y-64157461D01*
X115072489Y-64111706D01*
X115124000Y-64100500D01*
X116185500Y-64100500D01*
X116252539Y-64120185D01*
G37*
%TD.AperFunction*%
%TD*%
M02*
