%TF.GenerationSoftware,KiCad,Pcbnew,8.0.0*%
%TF.CreationDate,2024-06-16T22:46:12-07:00*%
%TF.ProjectId,PDM_Receiver,50444d5f-5265-4636-9569-7665722e6b69,rev?*%
%TF.SameCoordinates,Original*%
%TF.FileFunction,Legend,Top*%
%TF.FilePolarity,Positive*%
%FSLAX46Y46*%
G04 Gerber Fmt 4.6, Leading zero omitted, Abs format (unit mm)*
G04 Created by KiCad (PCBNEW 8.0.0) date 2024-06-16 22:46:12*
%MOMM*%
%LPD*%
G01*
G04 APERTURE LIST*
%ADD10C,0.152500*%
%ADD11C,0.154000*%
%ADD12C,0.152400*%
%ADD13C,0.127000*%
%ADD14C,0.100000*%
G04 APERTURE END LIST*
D10*
X111928328Y-84819180D02*
X111831470Y-84867608D01*
X111831470Y-84867608D02*
X111637756Y-84867608D01*
X111637756Y-84867608D02*
X111540899Y-84819180D01*
X111540899Y-84819180D02*
X111492470Y-84770751D01*
X111492470Y-84770751D02*
X111444042Y-84673894D01*
X111444042Y-84673894D02*
X111444042Y-84383322D01*
X111444042Y-84383322D02*
X111492470Y-84286465D01*
X111492470Y-84286465D02*
X111540899Y-84238037D01*
X111540899Y-84238037D02*
X111637756Y-84189608D01*
X111637756Y-84189608D02*
X111831470Y-84189608D01*
X111831470Y-84189608D02*
X111928328Y-84238037D01*
X112509470Y-84867608D02*
X112412613Y-84819180D01*
X112412613Y-84819180D02*
X112364184Y-84722322D01*
X112364184Y-84722322D02*
X112364184Y-83850608D01*
X112896898Y-84867608D02*
X112896898Y-83850608D01*
X112993756Y-84480180D02*
X113284327Y-84867608D01*
X113284327Y-84189608D02*
X112896898Y-84577037D01*
X107895613Y-84350608D02*
X108525185Y-84350608D01*
X108525185Y-84350608D02*
X108186185Y-84738037D01*
X108186185Y-84738037D02*
X108331470Y-84738037D01*
X108331470Y-84738037D02*
X108428328Y-84786465D01*
X108428328Y-84786465D02*
X108476756Y-84834894D01*
X108476756Y-84834894D02*
X108525185Y-84931751D01*
X108525185Y-84931751D02*
X108525185Y-85173894D01*
X108525185Y-85173894D02*
X108476756Y-85270751D01*
X108476756Y-85270751D02*
X108428328Y-85319180D01*
X108428328Y-85319180D02*
X108331470Y-85367608D01*
X108331470Y-85367608D02*
X108040899Y-85367608D01*
X108040899Y-85367608D02*
X107944042Y-85319180D01*
X107944042Y-85319180D02*
X107895613Y-85270751D01*
X108961041Y-85270751D02*
X109009470Y-85319180D01*
X109009470Y-85319180D02*
X108961041Y-85367608D01*
X108961041Y-85367608D02*
X108912613Y-85319180D01*
X108912613Y-85319180D02*
X108961041Y-85270751D01*
X108961041Y-85270751D02*
X108961041Y-85367608D01*
X109348470Y-84350608D02*
X109978042Y-84350608D01*
X109978042Y-84350608D02*
X109639042Y-84738037D01*
X109639042Y-84738037D02*
X109784327Y-84738037D01*
X109784327Y-84738037D02*
X109881185Y-84786465D01*
X109881185Y-84786465D02*
X109929613Y-84834894D01*
X109929613Y-84834894D02*
X109978042Y-84931751D01*
X109978042Y-84931751D02*
X109978042Y-85173894D01*
X109978042Y-85173894D02*
X109929613Y-85270751D01*
X109929613Y-85270751D02*
X109881185Y-85319180D01*
X109881185Y-85319180D02*
X109784327Y-85367608D01*
X109784327Y-85367608D02*
X109493756Y-85367608D01*
X109493756Y-85367608D02*
X109396899Y-85319180D01*
X109396899Y-85319180D02*
X109348470Y-85270751D01*
X110268613Y-84350608D02*
X110607613Y-85367608D01*
X110607613Y-85367608D02*
X110946613Y-84350608D01*
X114444042Y-79819180D02*
X114589328Y-79867608D01*
X114589328Y-79867608D02*
X114831470Y-79867608D01*
X114831470Y-79867608D02*
X114928328Y-79819180D01*
X114928328Y-79819180D02*
X114976756Y-79770751D01*
X114976756Y-79770751D02*
X115025185Y-79673894D01*
X115025185Y-79673894D02*
X115025185Y-79577037D01*
X115025185Y-79577037D02*
X114976756Y-79480180D01*
X114976756Y-79480180D02*
X114928328Y-79431751D01*
X114928328Y-79431751D02*
X114831470Y-79383322D01*
X114831470Y-79383322D02*
X114637756Y-79334894D01*
X114637756Y-79334894D02*
X114540899Y-79286465D01*
X114540899Y-79286465D02*
X114492470Y-79238037D01*
X114492470Y-79238037D02*
X114444042Y-79141180D01*
X114444042Y-79141180D02*
X114444042Y-79044322D01*
X114444042Y-79044322D02*
X114492470Y-78947465D01*
X114492470Y-78947465D02*
X114540899Y-78899037D01*
X114540899Y-78899037D02*
X114637756Y-78850608D01*
X114637756Y-78850608D02*
X114879899Y-78850608D01*
X114879899Y-78850608D02*
X115025185Y-78899037D01*
X115461041Y-79334894D02*
X115800041Y-79334894D01*
X115945327Y-79867608D02*
X115461041Y-79867608D01*
X115461041Y-79867608D02*
X115461041Y-78850608D01*
X115461041Y-78850608D02*
X115945327Y-78850608D01*
X116865470Y-79867608D02*
X116381184Y-79867608D01*
X116381184Y-79867608D02*
X116381184Y-78850608D01*
X114525185Y-84399037D02*
X114428328Y-84350608D01*
X114428328Y-84350608D02*
X114283042Y-84350608D01*
X114283042Y-84350608D02*
X114137756Y-84399037D01*
X114137756Y-84399037D02*
X114040899Y-84495894D01*
X114040899Y-84495894D02*
X113992470Y-84592751D01*
X113992470Y-84592751D02*
X113944042Y-84786465D01*
X113944042Y-84786465D02*
X113944042Y-84931751D01*
X113944042Y-84931751D02*
X113992470Y-85125465D01*
X113992470Y-85125465D02*
X114040899Y-85222322D01*
X114040899Y-85222322D02*
X114137756Y-85319180D01*
X114137756Y-85319180D02*
X114283042Y-85367608D01*
X114283042Y-85367608D02*
X114379899Y-85367608D01*
X114379899Y-85367608D02*
X114525185Y-85319180D01*
X114525185Y-85319180D02*
X114573613Y-85270751D01*
X114573613Y-85270751D02*
X114573613Y-84931751D01*
X114573613Y-84931751D02*
X114379899Y-84931751D01*
X115009470Y-85367608D02*
X115009470Y-84350608D01*
X115009470Y-84350608D02*
X115590613Y-85367608D01*
X115590613Y-85367608D02*
X115590613Y-84350608D01*
X116074899Y-85367608D02*
X116074899Y-84350608D01*
X116074899Y-84350608D02*
X116317042Y-84350608D01*
X116317042Y-84350608D02*
X116462328Y-84399037D01*
X116462328Y-84399037D02*
X116559185Y-84495894D01*
X116559185Y-84495894D02*
X116607614Y-84592751D01*
X116607614Y-84592751D02*
X116656042Y-84786465D01*
X116656042Y-84786465D02*
X116656042Y-84931751D01*
X116656042Y-84931751D02*
X116607614Y-85125465D01*
X116607614Y-85125465D02*
X116559185Y-85222322D01*
X116559185Y-85222322D02*
X116462328Y-85319180D01*
X116462328Y-85319180D02*
X116317042Y-85367608D01*
X116317042Y-85367608D02*
X116074899Y-85367608D01*
X107992470Y-78367608D02*
X107992470Y-77350608D01*
X107992470Y-77350608D02*
X108234613Y-77350608D01*
X108234613Y-77350608D02*
X108379899Y-77399037D01*
X108379899Y-77399037D02*
X108476756Y-77495894D01*
X108476756Y-77495894D02*
X108525185Y-77592751D01*
X108525185Y-77592751D02*
X108573613Y-77786465D01*
X108573613Y-77786465D02*
X108573613Y-77931751D01*
X108573613Y-77931751D02*
X108525185Y-78125465D01*
X108525185Y-78125465D02*
X108476756Y-78222322D01*
X108476756Y-78222322D02*
X108379899Y-78319180D01*
X108379899Y-78319180D02*
X108234613Y-78367608D01*
X108234613Y-78367608D02*
X107992470Y-78367608D01*
X109203185Y-77350608D02*
X109396899Y-77350608D01*
X109396899Y-77350608D02*
X109493756Y-77399037D01*
X109493756Y-77399037D02*
X109590613Y-77495894D01*
X109590613Y-77495894D02*
X109639042Y-77689608D01*
X109639042Y-77689608D02*
X109639042Y-78028608D01*
X109639042Y-78028608D02*
X109590613Y-78222322D01*
X109590613Y-78222322D02*
X109493756Y-78319180D01*
X109493756Y-78319180D02*
X109396899Y-78367608D01*
X109396899Y-78367608D02*
X109203185Y-78367608D01*
X109203185Y-78367608D02*
X109106328Y-78319180D01*
X109106328Y-78319180D02*
X109009470Y-78222322D01*
X109009470Y-78222322D02*
X108961042Y-78028608D01*
X108961042Y-78028608D02*
X108961042Y-77689608D01*
X108961042Y-77689608D02*
X109009470Y-77495894D01*
X109009470Y-77495894D02*
X109106328Y-77399037D01*
X109106328Y-77399037D02*
X109203185Y-77350608D01*
D11*
X115612012Y-67566436D02*
X114596012Y-67566436D01*
X114596012Y-67566436D02*
X115321727Y-67227769D01*
X115321727Y-67227769D02*
X114596012Y-66889102D01*
X114596012Y-66889102D02*
X115612012Y-66889102D01*
X115612012Y-66405293D02*
X114596012Y-66405293D01*
X115612012Y-65824721D02*
X115031441Y-66260150D01*
X114596012Y-65824721D02*
X115176584Y-66405293D01*
X115612012Y-64857102D02*
X115612012Y-65437674D01*
X115612012Y-65147388D02*
X114596012Y-65147388D01*
X114596012Y-65147388D02*
X114741155Y-65244150D01*
X114741155Y-65244150D02*
X114837917Y-65340912D01*
X114837917Y-65340912D02*
X114886298Y-65437674D01*
D12*
X113346857Y-71365334D02*
X113298476Y-71413715D01*
X113298476Y-71413715D02*
X113153333Y-71462095D01*
X113153333Y-71462095D02*
X113056571Y-71462095D01*
X113056571Y-71462095D02*
X112911428Y-71413715D01*
X112911428Y-71413715D02*
X112814666Y-71316953D01*
X112814666Y-71316953D02*
X112766285Y-71220191D01*
X112766285Y-71220191D02*
X112717904Y-71026667D01*
X112717904Y-71026667D02*
X112717904Y-70881524D01*
X112717904Y-70881524D02*
X112766285Y-70688000D01*
X112766285Y-70688000D02*
X112814666Y-70591238D01*
X112814666Y-70591238D02*
X112911428Y-70494476D01*
X112911428Y-70494476D02*
X113056571Y-70446095D01*
X113056571Y-70446095D02*
X113153333Y-70446095D01*
X113153333Y-70446095D02*
X113298476Y-70494476D01*
X113298476Y-70494476D02*
X113346857Y-70542857D01*
X114314476Y-71462095D02*
X113733904Y-71462095D01*
X114024190Y-71462095D02*
X114024190Y-70446095D01*
X114024190Y-70446095D02*
X113927428Y-70591238D01*
X113927428Y-70591238D02*
X113830666Y-70688000D01*
X113830666Y-70688000D02*
X113733904Y-70736381D01*
X114943428Y-70446095D02*
X115040190Y-70446095D01*
X115040190Y-70446095D02*
X115136952Y-70494476D01*
X115136952Y-70494476D02*
X115185333Y-70542857D01*
X115185333Y-70542857D02*
X115233714Y-70639619D01*
X115233714Y-70639619D02*
X115282095Y-70833143D01*
X115282095Y-70833143D02*
X115282095Y-71075048D01*
X115282095Y-71075048D02*
X115233714Y-71268572D01*
X115233714Y-71268572D02*
X115185333Y-71365334D01*
X115185333Y-71365334D02*
X115136952Y-71413715D01*
X115136952Y-71413715D02*
X115040190Y-71462095D01*
X115040190Y-71462095D02*
X114943428Y-71462095D01*
X114943428Y-71462095D02*
X114846666Y-71413715D01*
X114846666Y-71413715D02*
X114798285Y-71365334D01*
X114798285Y-71365334D02*
X114749904Y-71268572D01*
X114749904Y-71268572D02*
X114701523Y-71075048D01*
X114701523Y-71075048D02*
X114701523Y-70833143D01*
X114701523Y-70833143D02*
X114749904Y-70639619D01*
X114749904Y-70639619D02*
X114798285Y-70542857D01*
X114798285Y-70542857D02*
X114846666Y-70494476D01*
X114846666Y-70494476D02*
X114943428Y-70446095D01*
X112830667Y-73365334D02*
X112782286Y-73413715D01*
X112782286Y-73413715D02*
X112637143Y-73462095D01*
X112637143Y-73462095D02*
X112540381Y-73462095D01*
X112540381Y-73462095D02*
X112395238Y-73413715D01*
X112395238Y-73413715D02*
X112298476Y-73316953D01*
X112298476Y-73316953D02*
X112250095Y-73220191D01*
X112250095Y-73220191D02*
X112201714Y-73026667D01*
X112201714Y-73026667D02*
X112201714Y-72881524D01*
X112201714Y-72881524D02*
X112250095Y-72688000D01*
X112250095Y-72688000D02*
X112298476Y-72591238D01*
X112298476Y-72591238D02*
X112395238Y-72494476D01*
X112395238Y-72494476D02*
X112540381Y-72446095D01*
X112540381Y-72446095D02*
X112637143Y-72446095D01*
X112637143Y-72446095D02*
X112782286Y-72494476D01*
X112782286Y-72494476D02*
X112830667Y-72542857D01*
X113749905Y-72446095D02*
X113266095Y-72446095D01*
X113266095Y-72446095D02*
X113217714Y-72929905D01*
X113217714Y-72929905D02*
X113266095Y-72881524D01*
X113266095Y-72881524D02*
X113362857Y-72833143D01*
X113362857Y-72833143D02*
X113604762Y-72833143D01*
X113604762Y-72833143D02*
X113701524Y-72881524D01*
X113701524Y-72881524D02*
X113749905Y-72929905D01*
X113749905Y-72929905D02*
X113798286Y-73026667D01*
X113798286Y-73026667D02*
X113798286Y-73268572D01*
X113798286Y-73268572D02*
X113749905Y-73365334D01*
X113749905Y-73365334D02*
X113701524Y-73413715D01*
X113701524Y-73413715D02*
X113604762Y-73462095D01*
X113604762Y-73462095D02*
X113362857Y-73462095D01*
X113362857Y-73462095D02*
X113266095Y-73413715D01*
X113266095Y-73413715D02*
X113217714Y-73365334D01*
X115096095Y-74838666D02*
X115821810Y-74838666D01*
X115821810Y-74838666D02*
X115966953Y-74887047D01*
X115966953Y-74887047D02*
X116063715Y-74983809D01*
X116063715Y-74983809D02*
X116112095Y-75128952D01*
X116112095Y-75128952D02*
X116112095Y-75225714D01*
X115192857Y-74403238D02*
X115144476Y-74354857D01*
X115144476Y-74354857D02*
X115096095Y-74258095D01*
X115096095Y-74258095D02*
X115096095Y-74016190D01*
X115096095Y-74016190D02*
X115144476Y-73919428D01*
X115144476Y-73919428D02*
X115192857Y-73871047D01*
X115192857Y-73871047D02*
X115289619Y-73822666D01*
X115289619Y-73822666D02*
X115386381Y-73822666D01*
X115386381Y-73822666D02*
X115531524Y-73871047D01*
X115531524Y-73871047D02*
X116112095Y-74451619D01*
X116112095Y-74451619D02*
X116112095Y-73822666D01*
X108596095Y-80338666D02*
X109321810Y-80338666D01*
X109321810Y-80338666D02*
X109466953Y-80387047D01*
X109466953Y-80387047D02*
X109563715Y-80483809D01*
X109563715Y-80483809D02*
X109612095Y-80628952D01*
X109612095Y-80628952D02*
X109612095Y-80725714D01*
X108596095Y-79951619D02*
X108596095Y-79322666D01*
X108596095Y-79322666D02*
X108983143Y-79661333D01*
X108983143Y-79661333D02*
X108983143Y-79516190D01*
X108983143Y-79516190D02*
X109031524Y-79419428D01*
X109031524Y-79419428D02*
X109079905Y-79371047D01*
X109079905Y-79371047D02*
X109176667Y-79322666D01*
X109176667Y-79322666D02*
X109418572Y-79322666D01*
X109418572Y-79322666D02*
X109515334Y-79371047D01*
X109515334Y-79371047D02*
X109563715Y-79419428D01*
X109563715Y-79419428D02*
X109612095Y-79516190D01*
X109612095Y-79516190D02*
X109612095Y-79806476D01*
X109612095Y-79806476D02*
X109563715Y-79903238D01*
X109563715Y-79903238D02*
X109515334Y-79951619D01*
D13*
%TO.C,MK1*%
X110082250Y-65053000D02*
X111808250Y-65053000D01*
X110082250Y-67703000D02*
X110082250Y-65053000D01*
X111808250Y-67703000D02*
X110082250Y-67703000D01*
D14*
X113417250Y-64727000D02*
G75*
G02*
X113317250Y-64727000I-50000J0D01*
G01*
X113317250Y-64727000D02*
G75*
G02*
X113417250Y-64727000I50000J0D01*
G01*
D12*
%TO.C,C10*%
X109738748Y-69265000D02*
X110261252Y-69265000D01*
X109738748Y-70735000D02*
X110261252Y-70735000D01*
%TO.C,C5*%
X109738748Y-72265000D02*
X110261252Y-72265000D01*
X109738748Y-73735000D02*
X110261252Y-73735000D01*
%TO.C,J2*%
X110130000Y-78330000D02*
X110130000Y-77000000D01*
X111460000Y-78330000D02*
X110130000Y-78330000D01*
X112730000Y-75670000D02*
X115330000Y-75670000D01*
X112730000Y-78330000D02*
X112730000Y-75670000D01*
X112730000Y-78330000D02*
X115330000Y-78330000D01*
X115330000Y-78330000D02*
X115330000Y-75670000D01*
%TO.C,J3*%
X108295000Y-83330000D02*
X108295000Y-82000000D01*
X109625000Y-83330000D02*
X108295000Y-83330000D01*
X110895000Y-80670000D02*
X116035000Y-80670000D01*
X110895000Y-83330000D02*
X110895000Y-80670000D01*
X110895000Y-83330000D02*
X116035000Y-83330000D01*
X116035000Y-83330000D02*
X116035000Y-80670000D01*
%TD*%
M02*
